<?xml version="1.0" encoding="utf-8"?>
<!-- Generator: Adobe Illustrator 16.0.4, SVG Export Plug-In . SVG Version: 6.00 Build 0)  -->
<!DOCTYPE svg PUBLIC "-//W3C//DTD SVG 1.1//EN" "http://www.w3.org/Graphics/SVG/1.1/DTD/svg11.dtd">
<svg version="1.1" id="Layer_1" xmlns="http://www.w3.org/2000/svg" xmlns:xlink="http://www.w3.org/1999/xlink" x="0px" y="0px"
	 width="150.258px" height="169.668px" viewBox="0 0 150.258 169.668" enable-background="new 0 0 150.258 169.668"
	 xml:space="preserve">
<path fill-rule="evenodd" clip-rule="evenodd" fill="#B6B6B6" d="M67.925,169.562c-9.99,0.001-19.988-0.208-29.97,0.099
	c-4.309,0.133-5.357-1.45-5.29-5.436c0.201-11.819,0.016-23.646,0.134-35.467c0.027-2.774-0.802-4.405-3.268-6.003
	C6.578,107.881-4.483,79.549,1.69,52.025C7.567,25.816,30.524,4.464,56.833,0.737c39.06-5.534,72.906,20.654,77.499,60.045
	c0.399,3.428,1.999,6.326,3.323,9.345c3.879,8.838,7.859,17.632,11.911,26.392c1.396,3.017,0.763,4.427-2.662,4.277
	c-0.332-0.014-0.668-0.023-0.998,0.008c-4.096,0.384-9.321-1.799-12.003,1.003c-2.43,2.537-0.698,7.635-0.768,11.6
	c-0.311,17.7-10.344,31.615-27.243,37.151c-2.649,0.868-3.371,2.112-3.258,4.6c0.16,3.491-0.116,7.014,0.222,10.48
	c0.316,3.249-1.022,4-3.959,3.968C88.575,169.491,78.25,169.562,67.925,169.562z"/>
<g>
	<path fill="#FFFFFF" d="M45.688,77.318l-1.88,1.929l-12.5-12.5l12.5-12.5l1.88,1.953L35.141,66.747L45.688,77.318z"/>
	<path fill="#FFFFFF" d="M75.839,46.605L57.138,84.276l-2.393-1.27L73.447,45.36L75.839,46.605z"/>
	<path fill="#FFFFFF" d="M98.935,66.747l-12.5,12.5l-1.904-1.929l10.547-10.571L84.531,56.2l1.904-1.953L98.935,66.747z"/>
</g>
</svg>
