<?xml version="1.0" encoding="utf-8"?>
<!-- Generator: Adobe Illustrator 16.0.4, SVG Export Plug-In . SVG Version: 6.00 Build 0)  -->
<!DOCTYPE svg PUBLIC "-//W3C//DTD SVG 1.1//EN" "http://www.w3.org/Graphics/SVG/1.1/DTD/svg11.dtd">
<svg version="1.1" id="Layer_1" xmlns="http://www.w3.org/2000/svg" xmlns:xlink="http://www.w3.org/1999/xlink" x="0px" y="0px"
	 width="215.815px" height="173.488px" viewBox="0 0 215.815 173.488" enable-background="new 0 0 215.815 173.488"
	 xml:space="preserve">
<path opacity="0.3" d="M91.008,9.49c-45.287,0-82,36.713-82,82c0,45.287,36.713,82,82,82V9.49z"/>
<path opacity="0.3" d="M215.816,27.287c-24.372-24.373-63.891-24.373-88.263,0c-24.373,24.372-24.373,63.888,0,88.262
	L215.816,27.287z"/>
<path opacity="0.3" d="M98.657,155.206c24.372,24.373,63.889,24.373,88.262-0.002c24.373-24.371,24.373-63.888,0-88.26
	L98.657,155.206z"/>
<path fill="#FFFFFF" d="M82,0.482c-45.287,0-82,36.713-82,82s36.713,82,82,82V0.482z"/>
<path fill="#FFFFFF" d="M206.808,18.28c-24.372-24.373-63.891-24.373-88.263,0c-24.373,24.372-24.373,63.889,0,88.262L206.808,18.28
	z"/>
<path fill="#FFFFFF" d="M89.649,146.198c24.372,24.373,63.889,24.373,88.262-0.001c24.373-24.372,24.373-63.888,0-88.261
	L89.649,146.198z"/>
</svg>
